<?xml version="1.0" encoding="UTF-8" standalone="no"?>
<!DOCTYPE svg PUBLIC "-//W3C//DTD SVG 1.1//EN"
 "http://www.w3.org/Graphics/SVG/1.1/DTD/svg11.dtd">
<!-- Generated by graphviz version 8.0.5 (20230506.1012)
 -->
<!-- Title: snakemake_dag Pages: 1 -->
<svg width="868pt" height="558pt"
 viewBox="0.00 0.00 867.61 558.25" xmlns="http://www.w3.org/2000/svg" xmlns:xlink="http://www.w3.org/1999/xlink">
<g id="graph0" class="graph" transform="scale(1 1) rotate(0) translate(4 554.25)">
<title>snakemake_dag</title>
<polygon fill="white" stroke="none" points="-4,4 -4,-554.25 863.61,-554.25 863.61,4 -4,4"/>
<!-- 0 -->
<g id="node1" class="node">
<title>0</title>
<path fill="none" stroke="#56d8d8" stroke-width="2" stroke-dasharray="5,2" d="M507.99,-36C507.99,-36 477.99,-36 477.99,-36 471.99,-36 465.99,-30 465.99,-24 465.99,-24 465.99,-12 465.99,-12 465.99,-6 471.99,0 477.99,0 477.99,0 507.99,0 507.99,0 513.99,0 519.99,-6 519.99,-12 519.99,-12 519.99,-24 519.99,-24 519.99,-30 513.99,-36 507.99,-36"/>
<text text-anchor="middle" x="492.99" y="-14.88" font-family="sans" font-size="10.00">all</text>
</g>
<!-- 1 -->
<g id="node2" class="node">
<title>1</title>
<path fill="none" stroke="#56d87b" stroke-width="2" stroke-dasharray="5,2" d="M391.24,-108C391.24,-108 310.74,-108 310.74,-108 304.74,-108 298.74,-102 298.74,-96 298.74,-96 298.74,-84 298.74,-84 298.74,-78 304.74,-72 310.74,-72 310.74,-72 391.24,-72 391.24,-72 397.24,-72 403.24,-78 403.24,-84 403.24,-84 403.24,-96 403.24,-96 403.24,-102 397.24,-108 391.24,-108"/>
<text text-anchor="middle" x="350.99" y="-86.88" font-family="sans" font-size="10.00">annotate_variants</text>
</g>
<!-- 1&#45;&gt;0 -->
<g id="edge1" class="edge">
<title>1&#45;&gt;0</title>
<path fill="none" stroke="grey" stroke-width="2" d="M387.19,-71.15C407.52,-61.13 432.91,-48.62 453.72,-38.36"/>
<polygon fill="grey" stroke="grey" stroke-width="2" points="455.95,-41.17 463.37,-33.61 452.85,-34.9 455.95,-41.17"/>
</g>
<!-- 2 -->
<g id="node3" class="node">
<title>2</title>
<path fill="none" stroke="#d89556" stroke-width="2" stroke-dasharray="5,2" d="M338.99,-180C338.99,-180 304.99,-180 304.99,-180 298.99,-180 292.99,-174 292.99,-168 292.99,-168 292.99,-156 292.99,-156 292.99,-150 298.99,-144 304.99,-144 304.99,-144 338.99,-144 338.99,-144 344.99,-144 350.99,-150 350.99,-156 350.99,-156 350.99,-168 350.99,-168 350.99,-174 344.99,-180 338.99,-180"/>
<text text-anchor="middle" x="321.99" y="-158.88" font-family="sans" font-size="10.00">GLnexus</text>
</g>
<!-- 2&#45;&gt;1 -->
<g id="edge10" class="edge">
<title>2&#45;&gt;1</title>
<path fill="none" stroke="grey" stroke-width="2" d="M329.3,-143.34C332.13,-136.51 335.45,-128.5 338.63,-120.83"/>
<polygon fill="grey" stroke="grey" stroke-width="2" points="341.98,-121.48 342.57,-110.9 335.51,-118.8 341.98,-121.48"/>
</g>
<!-- 3 -->
<g id="node4" class="node">
<title>3</title>
<path fill="none" stroke="#97d856" stroke-width="2" stroke-dasharray="5,2" d="M101.99,-252C101.99,-252 49.99,-252 49.99,-252 43.99,-252 37.99,-246 37.99,-240 37.99,-240 37.99,-228 37.99,-228 37.99,-222 43.99,-216 49.99,-216 49.99,-216 101.99,-216 101.99,-216 107.99,-216 113.99,-222 113.99,-228 113.99,-228 113.99,-240 113.99,-240 113.99,-246 107.99,-252 101.99,-252"/>
<text text-anchor="middle" x="75.99" y="-230.88" font-family="sans" font-size="10.00">DeepVariant</text>
</g>
<!-- 3&#45;&gt;2 -->
<g id="edge13" class="edge">
<title>3&#45;&gt;2</title>
<path fill="none" stroke="grey" stroke-width="2" d="M114.91,-225.17C154.58,-216.74 218,-202.02 280.29,-181"/>
<polygon fill="grey" stroke="grey" stroke-width="2" points="282,-183.42 290.31,-176.85 279.72,-176.8 282,-183.42"/>
</g>
<!-- 4 -->
<g id="node5" class="node">
<title>4</title>
<path fill="none" stroke="#d87556" stroke-width="2" stroke-dasharray="5,2" d="M93.49,-324C93.49,-324 26.49,-324 26.49,-324 20.49,-324 14.49,-318 14.49,-312 14.49,-312 14.49,-300 14.49,-300 14.49,-294 20.49,-288 26.49,-288 26.49,-288 93.49,-288 93.49,-288 99.49,-288 105.49,-294 105.49,-300 105.49,-300 105.49,-312 105.49,-312 105.49,-318 99.49,-324 93.49,-324"/>
<text text-anchor="middle" x="59.99" y="-302.88" font-family="sans" font-size="10.00">MergeSamFiles</text>
</g>
<!-- 4&#45;&gt;3 -->
<g id="edge15" class="edge">
<title>4&#45;&gt;3</title>
<path fill="none" stroke="grey" stroke-width="2" d="M64.02,-287.34C65.55,-280.67 67.33,-272.89 69.04,-265.39"/>
<polygon fill="grey" stroke="grey" stroke-width="2" points="73.08,-265.43 71.89,-254.9 66.25,-263.87 73.08,-265.43"/>
</g>
<!-- 5 -->
<g id="node6" class="node">
<title>5</title>
<path fill="none" stroke="#d6d856" stroke-width="2" stroke-dasharray="5,2" d="M390.99,-396C390.99,-396 360.99,-396 360.99,-396 354.99,-396 348.99,-390 348.99,-384 348.99,-384 348.99,-372 348.99,-372 348.99,-366 354.99,-360 360.99,-360 360.99,-360 390.99,-360 390.99,-360 396.99,-360 402.99,-366 402.99,-372 402.99,-372 402.99,-384 402.99,-384 402.99,-390 396.99,-396 390.99,-396"/>
<text text-anchor="middle" x="375.99" y="-374.88" font-family="sans" font-size="10.00">align</text>
</g>
<!-- 5&#45;&gt;4 -->
<g id="edge18" class="edge">
<title>5&#45;&gt;4</title>
<path fill="none" stroke="grey" stroke-width="2" d="M348.23,-372.38C302.33,-364.52 207.5,-347.41 118.89,-325.14"/>
<polygon fill="grey" stroke="grey" stroke-width="2" points="118.99,-321.04 108.44,-321.96 117.26,-327.83 118.99,-321.04"/>
</g>
<!-- 17 -->
<g id="node18" class="node">
<title>17</title>
<path fill="none" stroke="#b6d856" stroke-width="2" stroke-dasharray="5,2" d="M453.11,-324C453.11,-324 386.86,-324 386.86,-324 380.86,-324 374.86,-318 374.86,-312 374.86,-312 374.86,-300 374.86,-300 374.86,-294 380.86,-288 386.86,-288 386.86,-288 453.11,-288 453.11,-288 459.11,-288 465.11,-294 465.11,-300 465.11,-300 465.11,-312 465.11,-312 465.11,-318 459.11,-324 453.11,-324"/>
<text text-anchor="middle" x="419.99" y="-302.88" font-family="sans" font-size="10.00">samtools_stats</text>
</g>
<!-- 5&#45;&gt;17 -->
<g id="edge35" class="edge">
<title>5&#45;&gt;17</title>
<path fill="none" stroke="grey" stroke-width="2" d="M387.09,-359.34C391.59,-352.18 396.9,-343.73 401.93,-335.73"/>
<polygon fill="grey" stroke="grey" stroke-width="2" points="405.37,-337.23 407.73,-326.9 399.45,-333.51 405.37,-337.23"/>
</g>
<!-- 6 -->
<g id="node7" class="node">
<title>6</title>
<path fill="none" stroke="#d85656" stroke-width="2" stroke-dasharray="5,2" d="M411.36,-478.25C411.36,-478.25 340.61,-478.25 340.61,-478.25 334.61,-478.25 328.61,-472.25 328.61,-466.25 328.61,-466.25 328.61,-444 328.61,-444 328.61,-438 334.61,-432 340.61,-432 340.61,-432 411.36,-432 411.36,-432 417.36,-432 423.36,-438 423.36,-444 423.36,-444 423.36,-466.25 423.36,-466.25 423.36,-472.25 417.36,-478.25 411.36,-478.25"/>
<text text-anchor="middle" x="375.99" y="-464.75" font-family="sans" font-size="10.00">fastp_se</text>
<text text-anchor="middle" x="375.99" y="-452" font-family="sans" font-size="10.00">s: SRR24443166</text>
<text text-anchor="middle" x="375.99" y="-439.25" font-family="sans" font-size="10.00">u: </text>
</g>
<!-- 6&#45;&gt;5 -->
<g id="edge20" class="edge">
<title>6&#45;&gt;5</title>
<path fill="none" stroke="grey" stroke-width="2" d="M375.99,-431.18C375.99,-424.36 375.99,-416.78 375.99,-409.56"/>
<polygon fill="grey" stroke="grey" stroke-width="2" points="379.49,-409.8 375.99,-399.8 372.49,-409.8 379.49,-409.8"/>
</g>
<!-- 19 -->
<g id="node20" class="node">
<title>19</title>
<path fill="none" stroke="#56d89a" stroke-width="2" stroke-dasharray="5,2" d="M508.36,-396C508.36,-396 449.61,-396 449.61,-396 443.61,-396 437.61,-390 437.61,-384 437.61,-384 437.61,-372 437.61,-372 437.61,-366 443.61,-360 449.61,-360 449.61,-360 508.36,-360 508.36,-360 514.36,-360 520.36,-366 520.36,-372 520.36,-372 520.36,-384 520.36,-384 520.36,-390 514.36,-396 508.36,-396"/>
<text text-anchor="middle" x="478.99" y="-374.88" font-family="sans" font-size="10.00">fastp_multiqc</text>
</g>
<!-- 6&#45;&gt;19 -->
<g id="edge37" class="edge">
<title>6&#45;&gt;19</title>
<path fill="none" stroke="grey" stroke-width="2" d="M407.45,-431.18C419.04,-422.72 432.25,-413.09 444.12,-404.43"/>
<polygon fill="grey" stroke="grey" stroke-width="2" points="446.56,-406.52 452.58,-397.8 442.43,-400.87 446.56,-406.52"/>
</g>
<!-- 7 -->
<g id="node8" class="node">
<title>7</title>
<path fill="none" stroke="#56d8b9" stroke-width="2" stroke-dasharray="5,2" d="M308.36,-550.25C308.36,-550.25 255.61,-550.25 255.61,-550.25 249.61,-550.25 243.61,-544.25 243.61,-538.25 243.61,-538.25 243.61,-526.25 243.61,-526.25 243.61,-520.25 249.61,-514.25 255.61,-514.25 255.61,-514.25 308.36,-514.25 308.36,-514.25 314.36,-514.25 320.36,-520.25 320.36,-526.25 320.36,-526.25 320.36,-538.25 320.36,-538.25 320.36,-544.25 314.36,-550.25 308.36,-550.25"/>
<text text-anchor="middle" x="281.99" y="-529.12" font-family="sans" font-size="10.00">get_genome</text>
</g>
<!-- 7&#45;&gt;0 -->
<g id="edge4" class="edge">
<title>7&#45;&gt;0</title>
<path fill="none" stroke="grey" stroke-width="2" d="M321.31,-532C415.78,-532.96 651.78,-529.98 706.99,-478.25 739.76,-447.54 725.99,-423.91 725.99,-379 725.99,-379 725.99,-379 725.99,-161 725.99,-71.73 599.74,-36.94 533.11,-24.8"/>
<polygon fill="grey" stroke="grey" stroke-width="2" points="533.08,-20.9 522.63,-22.66 531.89,-27.8 533.08,-20.9"/>
</g>
<!-- 7&#45;&gt;3 -->
<g id="edge16" class="edge">
<title>7&#45;&gt;3</title>
<path fill="none" stroke="grey" stroke-width="2" d="M242.77,-522.4C212.53,-514.29 170.67,-500.17 138.99,-478.25 64.31,-426.58 36.78,-409.07 4.99,-324 -0.61,-309.01 -2.19,-302.3 4.99,-288 10.51,-276.98 19.54,-267.66 29.33,-260.07"/>
<polygon fill="grey" stroke="grey" stroke-width="2" points="31.54,-262.39 37.7,-253.77 27.51,-256.66 31.54,-262.39"/>
</g>
<!-- 7&#45;&gt;4 -->
<g id="edge19" class="edge">
<title>7&#45;&gt;4</title>
<path fill="none" stroke="grey" stroke-width="2" d="M242.65,-514.67C223.95,-505.61 202.01,-493.18 184.99,-478.25 136.92,-436.08 96.54,-372.3 75.53,-335.64"/>
<polygon fill="grey" stroke="grey" stroke-width="2" points="78.36,-333.76 70.41,-326.76 72.26,-337.19 78.36,-333.76"/>
</g>
<!-- 7&#45;&gt;5 -->
<g id="edge21" class="edge">
<title>7&#45;&gt;5</title>
<path fill="none" stroke="grey" stroke-width="2" d="M286.26,-513.26C291.78,-492.46 302.76,-457.77 319.99,-432 326.35,-422.48 334.71,-413.41 343.03,-405.54"/>
<polygon fill="grey" stroke="grey" stroke-width="2" points="345.54,-408.2 350.64,-398.91 340.86,-402.99 345.54,-408.2"/>
</g>
<!-- 8 -->
<g id="node9" class="node">
<title>8</title>
<path fill="none" stroke="#78d856" stroke-width="2" stroke-dasharray="5,2" d="M685.61,-473.12C685.61,-473.12 604.36,-473.12 604.36,-473.12 598.36,-473.12 592.36,-467.12 592.36,-461.12 592.36,-461.12 592.36,-449.12 592.36,-449.12 592.36,-443.12 598.36,-437.12 604.36,-437.12 604.36,-437.12 685.61,-437.12 685.61,-437.12 691.61,-437.12 697.61,-443.12 697.61,-449.12 697.61,-449.12 697.61,-461.12 697.61,-461.12 697.61,-467.12 691.61,-473.12 685.61,-473.12"/>
<text text-anchor="middle" x="644.99" y="-452" font-family="sans" font-size="10.00">bwa_mem2_index</text>
</g>
<!-- 7&#45;&gt;8 -->
<g id="edge23" class="edge">
<title>7&#45;&gt;8</title>
<path fill="none" stroke="grey" stroke-width="2" d="M321.15,-526.04C378.17,-518.06 487.14,-501.26 577.99,-478.25 578.9,-478.02 579.82,-477.78 580.74,-477.54"/>
<polygon fill="grey" stroke="grey" stroke-width="2" points="582.21,-480.2 590.89,-474.12 580.32,-473.46 582.21,-480.2"/>
</g>
<!-- 9 -->
<g id="node10" class="node">
<title>9</title>
<path fill="none" stroke="#56b9d8" stroke-width="2" stroke-dasharray="5,2" d="M196.86,-324C196.86,-324 135.11,-324 135.11,-324 129.11,-324 123.11,-318 123.11,-312 123.11,-312 123.11,-300 123.11,-300 123.11,-294 129.11,-288 135.11,-288 135.11,-288 196.86,-288 196.86,-288 202.86,-288 208.86,-294 208.86,-300 208.86,-300 208.86,-312 208.86,-312 208.86,-318 202.86,-324 196.86,-324"/>
<text text-anchor="middle" x="165.99" y="-302.88" font-family="sans" font-size="10.00">genome_faidx</text>
</g>
<!-- 7&#45;&gt;9 -->
<g id="edge24" class="edge">
<title>7&#45;&gt;9</title>
<path fill="none" stroke="grey" stroke-width="2" d="M249.01,-513.37C235.41,-504.46 220.62,-492.53 210.99,-478.25 181.8,-434.97 171.54,-373.76 167.93,-337.45"/>
<polygon fill="grey" stroke="grey" stroke-width="2" points="171.19,-337.5 166.85,-327.84 164.22,-338.1 171.19,-337.5"/>
</g>
<!-- 10 -->
<g id="node11" class="node">
<title>10</title>
<path fill="none" stroke="#97d856" stroke-width="2" stroke-dasharray="5,2" d="M299.99,-252C299.99,-252 247.99,-252 247.99,-252 241.99,-252 235.99,-246 235.99,-240 235.99,-240 235.99,-228 235.99,-228 235.99,-222 241.99,-216 247.99,-216 247.99,-216 299.99,-216 299.99,-216 305.99,-216 311.99,-222 311.99,-228 311.99,-228 311.99,-240 311.99,-240 311.99,-246 305.99,-252 299.99,-252"/>
<text text-anchor="middle" x="273.99" y="-230.88" font-family="sans" font-size="10.00">DeepVariant</text>
</g>
<!-- 7&#45;&gt;10 -->
<g id="edge26" class="edge">
<title>7&#45;&gt;10</title>
<path fill="none" stroke="grey" stroke-width="2" d="M276.81,-513.45C265.8,-473.13 242.14,-371.81 255.99,-288 257.25,-280.36 259.47,-272.33 261.93,-264.91"/>
<polygon fill="grey" stroke="grey" stroke-width="2" points="265.21,-265.37 265.32,-254.78 258.63,-262.99 265.21,-265.37"/>
</g>
<!-- 11 -->
<g id="node12" class="node">
<title>11</title>
<path fill="none" stroke="#d87556" stroke-width="2" stroke-dasharray="5,2" d="M344.49,-324C344.49,-324 277.49,-324 277.49,-324 271.49,-324 265.49,-318 265.49,-312 265.49,-312 265.49,-300 265.49,-300 265.49,-294 271.49,-288 277.49,-288 277.49,-288 344.49,-288 344.49,-288 350.49,-288 356.49,-294 356.49,-300 356.49,-300 356.49,-312 356.49,-312 356.49,-318 350.49,-324 344.49,-324"/>
<text text-anchor="middle" x="310.99" y="-302.88" font-family="sans" font-size="10.00">MergeSamFiles</text>
</g>
<!-- 7&#45;&gt;11 -->
<g id="edge29" class="edge">
<title>7&#45;&gt;11</title>
<path fill="none" stroke="grey" stroke-width="2" d="M284.31,-513.28C289.26,-474.97 300.91,-384.9 307.05,-337.46"/>
<polygon fill="grey" stroke="grey" stroke-width="2" points="310.88,-338.11 308.69,-327.75 303.94,-337.22 310.88,-338.11"/>
</g>
<!-- 12 -->
<g id="node13" class="node">
<title>12</title>
<path fill="none" stroke="#d6d856" stroke-width="2" stroke-dasharray="5,2" d="M579.99,-396C579.99,-396 549.99,-396 549.99,-396 543.99,-396 537.99,-390 537.99,-384 537.99,-384 537.99,-372 537.99,-372 537.99,-366 543.99,-360 549.99,-360 549.99,-360 579.99,-360 579.99,-360 585.99,-360 591.99,-366 591.99,-372 591.99,-372 591.99,-384 591.99,-384 591.99,-390 585.99,-396 579.99,-396"/>
<text text-anchor="middle" x="564.99" y="-374.88" font-family="sans" font-size="10.00">align</text>
</g>
<!-- 7&#45;&gt;12 -->
<g id="edge31" class="edge">
<title>7&#45;&gt;12</title>
<path fill="none" stroke="grey" stroke-width="2" d="M321.24,-528.57C386.7,-523.28 514.03,-509.21 544.99,-478.25 562.71,-460.53 566.89,-431.76 567.12,-409.74"/>
<polygon fill="grey" stroke="grey" stroke-width="2" points="570.55,-409.67 566.82,-399.75 563.55,-409.83 570.55,-409.67"/>
</g>
<!-- 20 -->
<g id="node21" class="node">
<title>20</title>
<path fill="none" stroke="#567bd8" stroke-width="2" stroke-dasharray="5,2" d="M847.61,-108C847.61,-108 766.36,-108 766.36,-108 760.36,-108 754.36,-102 754.36,-96 754.36,-96 754.36,-84 754.36,-84 754.36,-78 760.36,-72 766.36,-72 766.36,-72 847.61,-72 847.61,-72 853.61,-72 859.61,-78 859.61,-84 859.61,-84 859.61,-96 859.61,-96 859.61,-102 853.61,-108 847.61,-108"/>
<text text-anchor="middle" x="806.99" y="-86.88" font-family="sans" font-size="10.00">picard_create_dict</text>
</g>
<!-- 7&#45;&gt;20 -->
<g id="edge39" class="edge">
<title>7&#45;&gt;20</title>
<path fill="none" stroke="grey" stroke-width="2" d="M321.36,-531.5C419.8,-531.39 673.5,-526.32 739.99,-478.25 779.39,-449.76 785.99,-427.62 785.99,-379 785.99,-379 785.99,-379 785.99,-233 785.99,-194.06 793.81,-149.75 799.91,-121.14"/>
<polygon fill="grey" stroke="grey" stroke-width="2" points="803.89,-121.33 802.63,-110.81 797.06,-119.82 803.89,-121.33"/>
</g>
<!-- 8&#45;&gt;0 -->
<g id="edge7" class="edge">
<title>8&#45;&gt;0</title>
<path fill="none" stroke="grey" stroke-width="2" d="M644.2,-436.46C643.03,-408.85 640.99,-353.76 640.99,-307 640.99,-307 640.99,-307 640.99,-161 640.99,-100.66 576.13,-57.98 532.29,-36.02"/>
<polygon fill="grey" stroke="grey" stroke-width="2" points="533.35,-32.69 522.82,-31.51 530.32,-39 533.35,-32.69"/>
</g>
<!-- 8&#45;&gt;5 -->
<g id="edge22" class="edge">
<title>8&#45;&gt;5</title>
<path fill="none" stroke="grey" stroke-width="2" d="M591.53,-440.49C547.69,-429.14 484.12,-412.25 428.99,-396 424.78,-394.76 420.4,-393.43 416.04,-392.07"/>
<polygon fill="grey" stroke="grey" stroke-width="2" points="416.56,-387.93 405.97,-388.25 414.44,-394.6 416.56,-387.93"/>
</g>
<!-- 8&#45;&gt;12 -->
<g id="edge32" class="edge">
<title>8&#45;&gt;12</title>
<path fill="none" stroke="grey" stroke-width="2" d="M626.03,-436.32C616.33,-427.22 604.34,-415.95 593.55,-405.82"/>
<polygon fill="grey" stroke="grey" stroke-width="2" points="595.77,-403.23 586.09,-398.94 590.98,-408.33 595.77,-403.23"/>
</g>
<!-- 9&#45;&gt;0 -->
<g id="edge5" class="edge">
<title>9&#45;&gt;0</title>
<path fill="none" stroke="grey" stroke-width="2" d="M163.26,-287.02C159.42,-256.08 155.22,-191.52 177.99,-144 198.22,-101.74 213.55,-93.86 254.99,-72 318.81,-38.33 403.17,-26 452.41,-21.52"/>
<polygon fill="grey" stroke="grey" stroke-width="2" points="452.65,-24.76 462.33,-20.45 452.07,-17.79 452.65,-24.76"/>
</g>
<!-- 9&#45;&gt;3 -->
<g id="edge17" class="edge">
<title>9&#45;&gt;3</title>
<path fill="none" stroke="grey" stroke-width="2" d="M143.28,-287.34C132.91,-279.27 120.43,-269.57 109.05,-260.72"/>
<polygon fill="grey" stroke="grey" stroke-width="2" points="111.04,-257.28 101,-253.9 106.75,-262.8 111.04,-257.28"/>
</g>
<!-- 9&#45;&gt;10 -->
<g id="edge27" class="edge">
<title>9&#45;&gt;10</title>
<path fill="none" stroke="grey" stroke-width="2" d="M193.52,-287.15C206.34,-278.84 221.81,-268.82 235.74,-259.79"/>
<polygon fill="grey" stroke="grey" stroke-width="2" points="238.02,-262.19 244.5,-253.81 234.21,-256.31 238.02,-262.19"/>
</g>
<!-- 10&#45;&gt;2 -->
<g id="edge14" class="edge">
<title>10&#45;&gt;2</title>
<path fill="none" stroke="grey" stroke-width="2" d="M286.1,-215.34C291.06,-208.1 296.94,-199.53 302.48,-191.45"/>
<polygon fill="grey" stroke="grey" stroke-width="2" points="305.94,-193.13 308.71,-182.9 300.17,-189.17 305.94,-193.13"/>
</g>
<!-- 11&#45;&gt;10 -->
<g id="edge25" class="edge">
<title>11&#45;&gt;10</title>
<path fill="none" stroke="grey" stroke-width="2" d="M301.65,-287.34C297.95,-280.34 293.6,-272.12 289.46,-264.28"/>
<polygon fill="grey" stroke="grey" stroke-width="2" points="292.22,-262.11 284.45,-254.9 286.03,-265.38 292.22,-262.11"/>
</g>
<!-- 12&#45;&gt;11 -->
<g id="edge28" class="edge">
<title>12&#45;&gt;11</title>
<path fill="none" stroke="grey" stroke-width="2" d="M537.33,-363.19C534.55,-362.03 531.73,-360.94 528.99,-360 462.48,-337.28 440.07,-342.32 369.64,-324.79"/>
<polygon fill="grey" stroke="grey" stroke-width="2" points="369.98,-320.75 359.42,-321.65 368.23,-327.53 369.98,-320.75"/>
</g>
<!-- 18 -->
<g id="node19" class="node">
<title>18</title>
<path fill="none" stroke="#b6d856" stroke-width="2" stroke-dasharray="5,2" d="M599.11,-324C599.11,-324 532.86,-324 532.86,-324 526.86,-324 520.86,-318 520.86,-312 520.86,-312 520.86,-300 520.86,-300 520.86,-294 526.86,-288 532.86,-288 532.86,-288 599.11,-288 599.11,-288 605.11,-288 611.11,-294 611.11,-300 611.11,-300 611.11,-312 611.11,-312 611.11,-318 605.11,-324 599.11,-324"/>
<text text-anchor="middle" x="565.99" y="-302.88" font-family="sans" font-size="10.00">samtools_stats</text>
</g>
<!-- 12&#45;&gt;18 -->
<g id="edge36" class="edge">
<title>12&#45;&gt;18</title>
<path fill="none" stroke="grey" stroke-width="2" d="M565.24,-359.34C565.33,-352.75 565.44,-345.08 565.55,-337.67"/>
<polygon fill="grey" stroke="grey" stroke-width="2" points="569.09,-337.95 565.73,-327.9 562.09,-337.85 569.09,-337.95"/>
</g>
<!-- 13 -->
<g id="node14" class="node">
<title>13</title>
<path fill="none" stroke="#d85656" stroke-width="2" stroke-dasharray="5,2" d="M524.36,-478.25C524.36,-478.25 453.61,-478.25 453.61,-478.25 447.61,-478.25 441.61,-472.25 441.61,-466.25 441.61,-466.25 441.61,-444 441.61,-444 441.61,-438 447.61,-432 453.61,-432 453.61,-432 524.36,-432 524.36,-432 530.36,-432 536.36,-438 536.36,-444 536.36,-444 536.36,-466.25 536.36,-466.25 536.36,-472.25 530.36,-478.25 524.36,-478.25"/>
<text text-anchor="middle" x="488.99" y="-464.75" font-family="sans" font-size="10.00">fastp_se</text>
<text text-anchor="middle" x="488.99" y="-452" font-family="sans" font-size="10.00">s: SRR24443168</text>
<text text-anchor="middle" x="488.99" y="-439.25" font-family="sans" font-size="10.00">u: </text>
</g>
<!-- 13&#45;&gt;12 -->
<g id="edge30" class="edge">
<title>13&#45;&gt;12</title>
<path fill="none" stroke="grey" stroke-width="2" d="M512.2,-431.18C520.32,-423.15 529.51,-414.07 537.91,-405.76"/>
<polygon fill="grey" stroke="grey" stroke-width="2" points="540.32,-408.32 544.98,-398.8 535.4,-403.34 540.32,-408.32"/>
</g>
<!-- 13&#45;&gt;19 -->
<g id="edge38" class="edge">
<title>13&#45;&gt;19</title>
<path fill="none" stroke="grey" stroke-width="2" d="M485.93,-431.18C485.02,-424.36 484.02,-416.78 483.05,-409.56"/>
<polygon fill="grey" stroke="grey" stroke-width="2" points="486.14,-409.25 481.36,-399.8 479.21,-410.18 486.14,-409.25"/>
</g>
<!-- 14 -->
<g id="node15" class="node">
<title>14</title>
<path fill="none" stroke="#d8b456" stroke-width="2" stroke-dasharray="5,2" d="M263.36,-180C263.36,-180 198.61,-180 198.61,-180 192.61,-180 186.61,-174 186.61,-168 186.61,-168 186.61,-156 186.61,-156 186.61,-150 192.61,-144 198.61,-144 198.61,-144 263.36,-144 263.36,-144 269.36,-144 275.36,-150 275.36,-156 275.36,-156 275.36,-168 275.36,-168 275.36,-174 269.36,-180 263.36,-180"/>
<text text-anchor="middle" x="230.99" y="-158.88" font-family="sans" font-size="10.00">get_vep_cache</text>
</g>
<!-- 14&#45;&gt;0 -->
<g id="edge9" class="edge">
<title>14&#45;&gt;0</title>
<path fill="none" stroke="grey" stroke-width="2" d="M238.12,-143.1C247.16,-122.78 264.65,-90.11 289.99,-72 338.73,-37.17 408.64,-25.22 452.4,-21.12"/>
<polygon fill="grey" stroke="grey" stroke-width="2" points="452.4,-24.39 462.08,-20.09 451.83,-17.41 452.4,-24.39"/>
</g>
<!-- 14&#45;&gt;1 -->
<g id="edge11" class="edge">
<title>14&#45;&gt;1</title>
<path fill="none" stroke="grey" stroke-width="2" d="M261.58,-143.15C276.11,-134.68 293.69,-124.42 309.41,-115.25"/>
<polygon fill="grey" stroke="grey" stroke-width="2" points="311.58,-117.87 318.45,-109.81 308.05,-111.83 311.58,-117.87"/>
</g>
<!-- 15 -->
<g id="node16" class="node">
<title>15</title>
<path fill="none" stroke="#59d856" stroke-width="2" stroke-dasharray="5,2" d="M452.74,-180C452.74,-180 381.24,-180 381.24,-180 375.24,-180 369.24,-174 369.24,-168 369.24,-168 369.24,-156 369.24,-156 369.24,-150 375.24,-144 381.24,-144 381.24,-144 452.74,-144 452.74,-144 458.74,-144 464.74,-150 464.74,-156 464.74,-156 464.74,-168 464.74,-168 464.74,-174 458.74,-180 452.74,-180"/>
<text text-anchor="middle" x="416.99" y="-158.88" font-family="sans" font-size="10.00">get_vep_plugins</text>
</g>
<!-- 15&#45;&gt;0 -->
<g id="edge8" class="edge">
<title>15&#45;&gt;0</title>
<path fill="none" stroke="grey" stroke-width="2" d="M426.61,-143.02C439.4,-119.12 462.16,-76.59 477.41,-48.1"/>
<polygon fill="grey" stroke="grey" stroke-width="2" points="480.81,-49.31 482.44,-38.84 474.63,-46 480.81,-49.31"/>
</g>
<!-- 15&#45;&gt;1 -->
<g id="edge12" class="edge">
<title>15&#45;&gt;1</title>
<path fill="none" stroke="grey" stroke-width="2" d="M400.33,-143.34C393.2,-135.77 384.69,-126.75 376.78,-118.35"/>
<polygon fill="grey" stroke="grey" stroke-width="2" points="379.27,-115.78 369.86,-110.9 374.18,-120.58 379.27,-115.78"/>
</g>
<!-- 16 -->
<g id="node17" class="node">
<title>16</title>
<path fill="none" stroke="#569ad8" stroke-width="2" stroke-dasharray="5,2" d="M590.99,-252C590.99,-252 532.99,-252 532.99,-252 526.99,-252 520.99,-246 520.99,-240 520.99,-240 520.99,-228 520.99,-228 520.99,-222 526.99,-216 532.99,-216 532.99,-216 590.99,-216 590.99,-216 596.99,-216 602.99,-222 602.99,-228 602.99,-228 602.99,-240 602.99,-240 602.99,-246 596.99,-252 590.99,-252"/>
<text text-anchor="middle" x="561.99" y="-230.88" font-family="sans" font-size="10.00">align_multiqc</text>
</g>
<!-- 16&#45;&gt;0 -->
<g id="edge2" class="edge">
<title>16&#45;&gt;0</title>
<path fill="none" stroke="grey" stroke-width="2" d="M556.22,-215.12C544.4,-178.46 517.3,-94.41 502.71,-49.16"/>
<polygon fill="grey" stroke="grey" stroke-width="2" points="505.18,-47.42 498.78,-38.98 498.52,-49.57 505.18,-47.42"/>
</g>
<!-- 17&#45;&gt;16 -->
<g id="edge33" class="edge">
<title>17&#45;&gt;16</title>
<path fill="none" stroke="grey" stroke-width="2" d="M456.19,-287.15C473.88,-278.43 495.4,-267.82 514.4,-258.46"/>
<polygon fill="grey" stroke="grey" stroke-width="2" points="516.43,-261.37 523.85,-253.81 513.34,-255.09 516.43,-261.37"/>
</g>
<!-- 18&#45;&gt;16 -->
<g id="edge34" class="edge">
<title>18&#45;&gt;16</title>
<path fill="none" stroke="grey" stroke-width="2" d="M564.98,-287.34C564.6,-280.75 564.16,-273.08 563.74,-265.67"/>
<polygon fill="grey" stroke="grey" stroke-width="2" points="567.07,-265.69 563.01,-255.9 560.09,-266.09 567.07,-265.69"/>
</g>
<!-- 19&#45;&gt;0 -->
<g id="edge3" class="edge">
<title>19&#45;&gt;0</title>
<path fill="none" stroke="grey" stroke-width="2" d="M481.89,-359.12C485.99,-332.26 492.99,-279.84 492.99,-235 492.99,-235 492.99,-235 492.99,-161 492.99,-122.65 492.99,-78.48 492.99,-49.72"/>
<polygon fill="grey" stroke="grey" stroke-width="2" points="496.49,-49.93 492.99,-39.93 489.49,-49.93 496.49,-49.93"/>
</g>
<!-- 20&#45;&gt;0 -->
<g id="edge6" class="edge">
<title>20&#45;&gt;0</title>
<path fill="none" stroke="grey" stroke-width="2" d="M753.64,-75.27C749.02,-74.14 744.43,-73.04 739.99,-72 667.42,-55.02 582.37,-37.23 533.37,-27.19"/>
<polygon fill="grey" stroke="grey" stroke-width="2" points="533.34,-23.2 522.84,-24.63 531.94,-30.06 533.34,-23.2"/>
</g>
</g>
</svg>
